<svg version="1.1" id="Layer_1" xmlns="http://www.w3.org/2000/svg" xmlns:xlink="http://www.w3.org/1999/xlink" x="0px" y="0px"
	 width="100%" viewBox="0 0 900 900" enable-background="new 0 0 900 900" xml:space="preserve">

<path fill="#FFFFFF" opacity="1.000000" stroke="none" 
	d="
M409.267059,682.669861 
	C405.260101,672.989258 401.515533,663.623596 397.698334,654.287720 
	C391.152924,638.279297 384.585480,622.279907 377.983368,606.294800 
	C372.112488,592.080139 366.134796,577.909424 360.291840,563.683289 
	C355.062378,550.950928 349.971802,538.161621 344.784698,525.411743 
	C338.870880,510.875519 332.927643,496.351257 326.979614,481.828949 
	C320.665009,466.411652 314.342468,450.997589 307.999939,435.591736 
	C301.353638,419.447845 294.630219,403.335571 288.031830,387.172180 
	C281.741180,371.762787 275.524841,356.322479 269.408997,340.843170 
	C268.780273,339.251862 269.060791,337.301239 268.885376,335.087891 
	C275.034912,334.714081 280.904877,334.136017 286.782837,334.038239 
	C312.197266,333.615540 337.615387,333.404938 363.028534,332.924164 
	C366.921570,332.850494 368.675201,334.378693 370.033203,337.839783 
	C377.226379,356.173004 384.599915,374.435944 391.981567,392.694672 
	C397.924713,407.395264 403.983398,422.049133 409.963318,436.734924 
	C416.537445,452.879913 422.980042,469.079224 429.658875,485.180634 
	C440.829376,512.110596 451.945312,539.066284 463.466980,565.846497 
	C470.620728,582.474182 478.441376,598.816223 486.063049,615.239929 
	C487.273773,617.848938 489.014862,620.211853 490.833496,623.222839 
	C494.178040,615.581238 497.724365,608.304871 500.596588,600.771545 
	C512.405212,569.799744 524.135681,538.796692 535.648071,507.713745 
	C544.938477,482.630035 554.061707,457.480560 562.893982,432.232513 
	C567.705750,418.477448 571.813477,404.473846 576.128357,390.548126 
	C578.307983,383.513702 580.022156,376.328583 582.384033,369.359802 
	C583.498596,366.071228 582.632935,365.012360 579.529236,365.007385 
	C568.530640,364.989838 557.530273,364.909851 546.536072,365.129761 
	C545.333435,365.153778 543.555847,366.729706 543.073608,367.982025 
	C533.924194,391.741211 524.955017,415.569733 515.896423,439.364044 
	C503.591034,471.686829 491.259613,503.999725 478.862640,536.287415 
	C478.196228,538.023010 476.821442,539.486572 475.174042,541.993408 
	C473.116119,537.560547 471.302307,534.015625 469.800507,530.343079 
	C466.663177,522.670959 463.344116,515.041626 460.839020,507.159760 
	C459.967834,504.418732 460.605499,500.724396 461.695984,497.907532 
	C471.694366,472.080841 481.808899,446.296997 492.160980,420.610016 
	C501.381897,397.729797 510.953094,374.990784 520.354858,352.183319 
	C522.247559,347.591888 524.566162,343.096771 525.765259,338.325226 
	C526.629944,334.884460 528.783203,334.483032 531.327454,334.034241 
	C532.458801,333.834686 533.654968,334.019196 534.821045,333.997131 
	C552.238037,333.667877 569.660095,333.493683 587.070190,332.944611 
	C599.082397,332.565765 611.073914,331.569031 623.083191,331.043152 
	C628.678833,330.798157 629.580933,332.033722 627.837158,337.442444 
	C623.314392,351.471130 618.691101,365.468414 613.983887,379.436401 
	C608.716736,395.065796 603.504944,410.718109 597.928040,426.237885 
	C586.933777,456.833405 575.824280,487.388794 564.539429,517.878235 
	C552.254822,551.069092 539.685303,584.154419 527.301880,617.308838 
	C520.131531,636.506348 513.154053,655.776062 505.938232,674.956299 
	C503.642670,681.058167 500.858887,686.976318 497.952423,693.789856 
	C496.581177,691.885925 495.567963,690.892944 495.043335,689.687378 
	C488.981293,675.756775 483.002777,661.789795 476.982605,647.840942 
	C471.585693,635.336121 466.179871,622.835022 460.750244,610.344360 
	C454.059509,594.952454 447.354248,579.566956 440.628235,564.190491 
	C435.682251,552.883362 430.653137,541.612427 425.731537,530.294739 
	C417.116516,510.483490 408.606140,490.626740 399.955109,470.831329 
	C393.790405,456.725189 387.416870,442.710419 381.226898,428.615204 
	C373.107452,410.126343 365.086639,391.594147 356.999664,373.091003 
	C355.457336,369.562073 353.246033,366.220215 352.332489,362.546082 
	C350.901611,356.791229 346.914856,356.711212 342.470947,357.020996 
	C333.469452,357.648468 324.469025,358.298309 315.474915,359.022522 
	C312.633087,359.251343 309.812622,359.746307 305.465210,360.319489 
	C311.914001,378.314453 317.956421,395.524414 324.255920,412.639709 
	C329.010254,425.556824 333.945343,438.412231 339.066620,451.188202 
	C345.919495,468.284027 353.012848,485.283661 360.034424,502.311646 
	C369.008209,524.073853 377.972168,545.840332 387.017548,567.572815 
	C394.643250,585.894348 402.452698,604.139587 410.047302,622.473877 
	C419.116333,644.367493 427.953674,666.357422 437.066986,688.232361 
	C442.122467,700.367249 447.702789,712.283752 452.741516,724.425293 
	C457.784729,736.577637 463.079865,748.901123 460.840729,762.456177 
	C459.650543,769.661316 457.087982,776.691833 454.593048,783.601929 
	C453.689850,786.103394 451.599701,785.695007 450.505707,783.004700 
	C447.309357,775.144592 444.058258,767.306824 440.826019,759.461365 
	C434.541992,744.208557 428.237671,728.963989 421.977661,713.701355 
	C417.785339,703.480103 413.654907,693.233521 409.267059,682.669861 
z"/>
<path fill="#FFFFFF" opacity="1.000000" stroke="none" 
	d="
M400.040344,118.883102 
	C412.869659,120.252090 425.692810,121.682686 438.530212,122.971184 
	C449.436493,124.065849 460.371246,124.882385 471.271790,126.027794 
	C486.034485,127.579025 500.766266,129.425827 515.530823,130.958069 
	C526.761841,132.123627 538.034973,132.882629 549.267090,134.039139 
	C557.031433,134.838608 564.785461,135.849152 572.469116,137.193863 
	C573.533875,137.380219 574.852478,140.016525 574.888306,141.545929 
	C575.110535,151.039612 574.873291,160.543198 575.031860,170.039429 
	C575.233765,182.126083 575.815430,194.207397 575.933960,206.293976 
	C575.988708,211.868729 575.488464,217.467606 574.877380,223.015640 
	C574.743530,224.230804 573.288696,225.809464 572.066589,226.317642 
	C558.626648,231.906693 545.320068,237.951508 531.518250,242.470779 
	C525.806091,244.341187 518.988831,242.918076 512.676392,242.830627 
	C510.413940,242.799316 508.123260,241.892441 505.906708,242.086197 
	C501.750610,242.449493 500.848053,240.659698 500.882416,236.853058 
	C500.915131,233.233185 501.855072,231.574326 505.695038,231.964325 
	C510.429352,232.445160 515.271301,233.367004 519.920166,232.829742 
	C526.580688,232.060028 533.188232,230.426895 539.664001,228.611603 
	C543.744812,227.467682 547.543701,225.317810 551.809387,223.471909 
	C542.305481,222.627304 533.161011,221.668503 523.994202,221.032272 
	C507.914764,219.916275 491.820221,219.020187 475.734802,217.988541 
	C466.062378,217.368195 456.385712,216.779495 446.727905,215.973526 
	C432.047058,214.748367 417.391968,213.201904 402.703461,212.088135 
	C396.395813,211.609863 390.235748,211.859756 384.142273,214.869461 
	C374.421783,219.670609 364.246368,223.550735 354.424591,228.835434 
	C370.640991,229.227554 386.857422,229.619675 403.575043,230.420288 
	C404.384155,231.885864 404.692078,232.942932 404.534241,233.999756 
	C391.348267,233.666489 378.629089,233.246140 365.906708,233.091263 
	C363.917511,233.067047 361.913574,234.250641 359.916473,234.875748 
	C360.076111,235.584641 360.235718,236.293549 360.395355,237.002441 
	C366.596893,237.002441 372.798462,237.002441 379.000000,237.356323 
	C378.999878,238.417984 378.999756,239.125763 378.999664,239.833527 
	C363.117371,239.555450 347.233521,239.338974 331.354065,238.946594 
	C328.231445,238.869446 325.946350,237.785248 325.919678,233.667465 
	C325.740540,205.971283 325.390747,178.275635 324.933350,150.582489 
	C324.869843,146.735275 326.023193,144.921234 329.820190,143.470245 
	C345.641418,137.424301 361.265900,130.864731 377.000671,124.589027 
	C378.290985,124.074402 379.867706,124.277916 381.664307,124.327179 
	C382.344849,125.004417 382.672424,125.502205 383.020538,126.297928 
	C383.360718,127.063911 383.680359,127.531960 384.067780,128.362045 
	C386.941071,131.043045 388.962708,130.695663 390.431244,127.000000 
	C394.890320,126.180374 398.918152,125.360748 402.946014,124.541122 
	C402.994019,123.976601 403.042023,123.412086 403.090057,122.847572 
	C402.060028,121.898384 401.030029,120.949196 400.008331,119.720718 
	C400.024567,119.255318 400.032440,119.069206 400.040344,118.883102 
M384.999756,143.532547 
	C384.999756,140.078400 384.999756,136.624252 384.999756,132.954681 
	C383.746796,133.117996 382.879059,133.058197 382.153809,133.351196 
	C367.611389,139.226227 353.054138,145.068054 338.610687,151.178543 
	C337.346985,151.713165 336.121582,154.059860 336.110199,155.574142 
	C335.948730,177.066986 335.990509,198.561432 336.025482,220.055420 
	C336.027435,221.271805 336.395996,222.487579 336.645081,224.017624 
	C353.114746,217.110062 369.027191,210.436218 384.999756,203.737152 
	C384.999756,183.832947 384.999756,164.178650 384.999756,143.532547 
z"/>
<path fill="#FFFFFF" opacity="1.000000" stroke="none" 
	d="
M416.999878,268.000000 
	C416.666931,259.253876 416.491821,250.997055 415.933960,242.766159 
	C415.658447,238.701050 416.608856,236.298004 420.733124,234.510880 
	C427.780853,231.456955 434.498871,227.616501 441.255402,223.923492 
	C447.731781,220.383636 454.260284,222.542419 460.790009,223.394028 
	C464.328796,223.855576 467.832153,224.675430 471.381256,224.952637 
	C477.784790,225.452805 484.208740,225.713470 490.627930,225.985367 
	C495.558075,226.194183 496.862732,229.555862 496.920471,233.532288 
	C496.970062,236.943604 496.178284,240.358627 496.040161,243.783371 
	C495.872467,247.942184 496.026917,252.113098 495.996033,256.278442 
	C495.669312,300.352722 495.409637,344.427887 494.854431,388.499329 
	C494.810364,391.995758 492.969940,395.584045 491.507080,398.929749 
	C481.362640,422.130585 471.119415,445.288361 460.857544,468.437653 
	C457.541016,475.919128 454.115417,483.353455 450.623047,490.754303 
	C450.173157,491.707672 449.018677,492.328491 447.140045,494.086395 
	C446.650146,491.284119 446.043060,489.424438 446.041016,487.564087 
	C445.988861,440.076660 445.999969,392.589233 446.000000,345.101776 
	C446.000031,308.868805 446.000000,272.635864 446.000000,234.863007 
	C439.289307,238.285721 434.064789,240.783615 429.061279,243.665222 
	C428.218323,244.150681 428.050201,246.291565 428.043121,247.670013 
	C427.972076,261.499298 427.874420,275.330536 428.030792,289.158478 
	C428.239075,307.574188 428.615662,325.988556 429.020569,344.401276 
	C429.238708,354.320374 429.714813,364.233582 429.988678,374.151794 
	C430.368225,387.899414 430.679413,401.649017 430.996796,415.398285 
	C431.344910,430.479797 431.715820,445.561249 431.944214,460.644714 
	C431.976257,462.762634 431.254639,464.891937 430.686127,468.131622 
	C428.925934,466.207794 427.559509,465.330444 427.094269,464.109650 
	C422.877380,453.044006 419.382843,442.038208 419.765137,429.722748 
	C420.335907,411.336487 419.349487,392.901031 418.994904,374.487091 
	C418.685211,358.404999 418.307892,342.324219 418.006317,326.241974 
	C417.645416,306.995117 417.333191,287.747375 416.999878,268.000000 
z"/>
<path fill="#FEFEFE" opacity="1.000000" stroke="none" 
	d="
M504.870636,125.001633 
	C490.903595,123.676888 477.408997,122.270172 463.896484,121.063957 
	C457.665222,120.507713 451.395813,120.391983 445.149811,119.982964 
	C441.565918,119.748276 437.987671,119.379990 434.422638,118.943268 
	C433.703339,118.855141 432.450409,118.156013 432.469696,117.792999 
	C432.621155,114.937271 432.556580,111.908783 433.582062,109.342453 
	C433.976105,108.356186 437.031830,108.086212 438.869049,108.103432 
	C441.782959,108.130722 444.685211,108.858116 447.604340,108.965569 
	C458.851532,109.379593 470.119934,109.394669 481.348785,110.078140 
	C491.622284,110.703476 501.857117,111.977669 512.104370,113.011612 
	C515.865906,113.391151 517.263489,116.269409 515.918396,121.742111 
	C515.194824,124.686028 513.890198,127.446548 509.746552,125.382820 
	C508.517792,124.770836 506.819122,125.102425 504.870636,125.001633 
z"/>
<path fill="#FFFFFF" opacity="1.000000" stroke="none" 
	d="
M405.000000,234.000000 
	C404.692078,232.942932 404.384155,231.885864 404.037994,230.497696 
	C408.337585,230.381363 412.890808,228.812271 418.327698,232.084213 
	C413.846191,234.383087 410.317200,236.193359 406.252594,237.793808 
	C405.144257,237.389328 404.571533,237.194656 404.124573,236.705154 
	C404.500214,235.606888 404.750122,234.803452 405.000000,234.000000 
z"/>
<path fill="#FFFFFF" opacity="1.000000" stroke="none" 
	d="
M379.462280,239.910934 
	C378.999756,239.125763 378.999878,238.417984 379.468262,237.355499 
	C385.957703,237.001541 391.978851,237.002304 398.000000,237.356842 
	C397.999908,238.418243 397.999786,239.125824 397.999664,239.833420 
	C391.974762,239.885056 385.949829,239.936691 379.462280,239.910934 
z"/>
<path fill="#FFFFFF" opacity="1.000000" stroke="none" 
	d="
M399.835754,118.514526 
	C400.032440,119.069206 400.024567,119.255318 399.595703,119.721748 
	C394.980072,121.335732 389.610901,119.808350 386.649475,124.997643 
	C385.199310,124.663628 384.099670,124.331963 382.991150,123.721588 
	C382.973907,123.257149 382.965485,123.071434 382.957031,122.885712 
	C387.955536,119.337410 393.296906,116.995331 399.835754,118.514526 
z"/>
<path fill="#FFFFFF" opacity="1.000000" stroke="none" 
	d="
M398.407013,239.910538 
	C397.999786,239.125824 397.999908,238.418243 398.428406,237.355911 
	C400.570801,237.000793 402.284790,237.000397 403.998779,237.000000 
	C404.571533,237.194656 405.144257,237.389328 405.881805,237.847061 
	C403.635864,238.735977 401.225098,239.361816 398.407013,239.910538 
z"/>
<path fill="#FFFFFE" opacity="1.000000" stroke="none" 
	d="
M382.711639,122.961319 
	C382.965485,123.071434 382.973907,123.257149 382.991150,124.054863 
	C383.000000,125.111244 383.000000,125.555618 383.000000,126.000000 
	C382.672424,125.502205 382.344849,125.004417 381.988281,124.194992 
	C382.128265,123.601219 382.297241,123.319077 382.711639,122.961319 
z"/>
<path fill="#000000" opacity="1.000000" stroke="none" 
	d="
M384.999756,144.028442 
	C384.999756,164.178650 384.999756,183.832947 384.999756,203.737152 
	C369.027191,210.436218 353.114746,217.110062 336.645081,224.017624 
	C336.395996,222.487579 336.027435,221.271805 336.025482,220.055420 
	C335.990509,198.561432 335.948730,177.066986 336.110199,155.574142 
	C336.121582,154.059860 337.346985,151.713165 338.610687,151.178543 
	C353.054138,145.068054 367.611389,139.226227 382.153809,133.351196 
	C382.879059,133.058197 383.746796,133.117996 384.999756,132.954681 
	C384.999756,136.624252 384.999756,140.078400 384.999756,144.028442 
z"/>
<path fill="#F9F9F8" opacity="1.000000" stroke="none" 
	d="
M404.124573,236.705170 
	C402.284790,237.000397 400.570801,237.000793 398.428406,237.002106 
	C391.978851,237.002304 385.957703,237.001541 379.468262,237.001617 
	C372.798462,237.002441 366.596893,237.002441 360.395355,237.002441 
	C360.235718,236.293549 360.076111,235.584641 359.916473,234.875748 
	C361.913574,234.250641 363.917511,233.067047 365.906708,233.091263 
	C378.629089,233.246140 391.348267,233.666489 404.534241,233.999756 
	C404.750122,234.803452 404.500214,235.606888 404.124573,236.705170 
z"/>
<path fill="#FEFEFE" opacity="1.000000" stroke="none" 
	d="
M387.000000,125.000000 
	C389.610901,119.808350 394.980072,121.335732 399.587372,120.001038 
	C401.030029,120.949196 402.060028,121.898384 403.090057,122.847572 
	C403.042023,123.412086 402.994019,123.976601 402.946014,124.541122 
	C398.918152,125.360748 394.890320,126.180374 390.226044,126.737152 
	C388.726410,126.316200 387.863190,126.158096 387.000000,125.750000 
	C387.000000,125.500000 387.000000,125.000000 387.000000,125.000000 
z"/>
<path fill="#FEFEFE" opacity="1.000000" stroke="none" 
	d="
M387.000000,125.999992 
	C387.863190,126.158096 388.726410,126.316200 389.794800,126.737152 
	C388.962708,130.695663 386.941071,131.043045 384.421814,128.357010 
	C385.472015,127.326622 386.235992,126.663307 387.000000,125.999992 
z"/>
<path fill="#FEFEFD" opacity="1.000000" stroke="none" 
	d="
M387.000000,125.749992 
	C386.235992,126.663307 385.472015,127.326622 384.354004,127.994965 
	C383.680359,127.531960 383.360718,127.063911 383.020538,126.297928 
	C383.000000,125.555618 383.000000,125.111244 383.000000,124.333588 
	C384.099670,124.331963 385.199310,124.663628 386.649475,124.997643 
	C387.000000,125.000000 387.000000,125.500000 387.000000,125.749992 
z"/>
</svg>